<!-- <svg xmlns="http://www.w3.org/2000/svg" width="176" height="40" fill="none" viewBox="0 0 176 40">
<path fill="#007dfc" fill-rule="evenodd" d="M15 28a5 5 0 0 1-5-5V0H0v23c0 8.284 6.716 15 15 15h11V28H15ZM45 10a9 9 0 1 0 0 18 9 9 0 0 0 0-18Zm-19 9C26 8.507 34.507 0 45 0s19 8.507 19 19-8.507 19-19 19-19-8.507-19-19ZM153 10a9 9 0 0 0-9 9 9 9 0 0 0 9 9 9 9 0 0 0 9-9 9 9 0 0 0-9-9Zm-19 9c0-10.493 8.507-19 19-19s19 8.507 19 19-8.507 19-19 19-19-8.507-19-19ZM85 0C74.507 0 66 8.507 66 19s8.507 19 19 19h28c1.969 0 3.868-.3 5.654-.856L124 40l5.768-10.804A19.007 19.007 0 0 0 132 20.261V19c0-10.493-8.507-19-19-19H85Zm37 19a9 9 0 0 0-9-9H85a9 9 0 1 0 0 18h28a9 9 0 0 0 9-8.93V19Z" clip-rule="evenodd"></path>
<path fill="#007dfc" d="M176 2.5a2.5 2.5 0 1 1-5 0 2.5 2.5 0 0 1 5 0Z"></path>
</svg> -->

<svg id="logo-86" width="40" height="40" viewBox="0 0 40 40" fill="none" xmlns="http://www.w3.org/2000/svg"><path class="ccustom" fill-rule="evenodd" clip-rule="evenodd" d="M25.5557 11.6853C23.9112 10.5865 21.9778 10 20 10V0C23.9556 0 27.8224 1.17298 31.1114 3.37061C34.4004 5.56823 36.9638 8.69181 38.4776 12.3463C39.9913 16.0008 40.3874 20.0222 39.6157 23.9018C38.844 27.7814 36.9392 31.3451 34.1421 34.1421C31.3451 36.9392 27.7814 38.844 23.9018 39.6157C20.0222 40.3874 16.0008 39.9913 12.3463 38.4776C8.69181 36.9638 5.56823 34.4004 3.37061 31.1114C1.17298 27.8224 0 23.9556 0 20H10C10 21.9778 10.5865 23.9112 11.6853 25.5557C12.7841 27.2002 14.3459 28.4819 16.1732 29.2388C18.0004 29.9957 20.0111 30.1937 21.9509 29.8078C23.8907 29.422 25.6725 28.4696 27.0711 27.0711C28.4696 25.6725 29.422 23.8907 29.8078 21.9509C30.1937 20.0111 29.9957 18.0004 29.2388 16.1732C28.4819 14.3459 27.2002 12.7841 25.5557 11.6853Z" fill="#007DFC"></path><path class="ccustom" fill-rule="evenodd" clip-rule="evenodd" d="M10 5.16562e-07C10 1.31322 9.74135 2.61358 9.2388 3.82683C8.73625 5.04009 7.99966 6.14248 7.07107 7.07107C6.14249 7.99966 5.0401 8.73625 3.82684 9.2388C2.61358 9.74134 1.31322 10 5.4439e-06 10L5.00679e-06 20C2.62644 20 5.22716 19.4827 7.65368 18.4776C10.0802 17.4725 12.285 15.9993 14.1421 14.1421C15.9993 12.285 17.4725 10.0802 18.4776 7.65367C19.4827 5.22715 20 2.62643 20 -3.81469e-06L10 5.16562e-07Z" fill="#007DFC"></path></svg>